<mxfile host="app.diagrams.net" modified="2022-02-15T06:59:55.318Z" agent="5.0 (Windows NT 10.0; Win64; x64) AppleWebKit/537.36 (KHTML, like Gecko) Chrome/96.0.4664.174 YaBrowser/22.1.3.848 Yowser/2.5 Safari/537.36" etag="UZ5NJhfD3aRBbOt4dTOv" version="16.5.6" type="github">
  <diagram id="y8QH2Xs-EVp4dDAqNL8i" name="Page-1">
    <mxGraphModel dx="1185" dy="1807" grid="0" gridSize="10" guides="1" tooltips="1" connect="1" arrows="1" fold="1" page="1" pageScale="1" pageWidth="827" pageHeight="1169" math="0" shadow="0">
      <root>
        <mxCell id="0" />
        <mxCell id="1" parent="0" />
        <mxCell id="FjzVUKd9onfO_mUSDXpC-1" value="Entity" style="swimlane;fontStyle=0;childLayout=stackLayout;horizontal=1;startSize=26;fillColor=none;horizontalStack=0;resizeParent=1;resizeParentMax=0;resizeLast=0;collapsible=1;marginBottom=0;" parent="1" vertex="1">
          <mxGeometry x="310" y="60" width="140" height="52" as="geometry" />
        </mxCell>
        <mxCell id="FjzVUKd9onfO_mUSDXpC-2" value="+ Id: int" style="text;strokeColor=none;fillColor=none;align=left;verticalAlign=top;spacingLeft=4;spacingRight=4;overflow=hidden;rotatable=0;points=[[0,0.5],[1,0.5]];portConstraint=eastwest;" parent="FjzVUKd9onfO_mUSDXpC-1" vertex="1">
          <mxGeometry y="26" width="140" height="26" as="geometry" />
        </mxCell>
        <mxCell id="FjzVUKd9onfO_mUSDXpC-9" value="Person" style="swimlane;fontStyle=0;childLayout=stackLayout;horizontal=1;startSize=26;fillColor=none;horizontalStack=0;resizeParent=1;resizeParentMax=0;resizeLast=0;collapsible=1;marginBottom=0;" parent="1" vertex="1">
          <mxGeometry x="75" y="23" width="170" height="182" as="geometry" />
        </mxCell>
        <mxCell id="FjzVUKd9onfO_mUSDXpC-10" value="+ FirstName: string&#xa;" style="text;strokeColor=none;fillColor=none;align=left;verticalAlign=top;spacingLeft=4;spacingRight=4;overflow=hidden;rotatable=0;points=[[0,0.5],[1,0.5]];portConstraint=eastwest;" parent="FjzVUKd9onfO_mUSDXpC-9" vertex="1">
          <mxGeometry y="26" width="170" height="26" as="geometry" />
        </mxCell>
        <mxCell id="BDBQeY_DdKFdNmqo1651-56" value="+ Patronymic: string" style="text;strokeColor=none;fillColor=none;align=left;verticalAlign=top;spacingLeft=4;spacingRight=4;overflow=hidden;rotatable=0;points=[[0,0.5],[1,0.5]];portConstraint=eastwest;" vertex="1" parent="FjzVUKd9onfO_mUSDXpC-9">
          <mxGeometry y="52" width="170" height="26" as="geometry" />
        </mxCell>
        <mxCell id="BDBQeY_DdKFdNmqo1651-55" value="+ LastName: string" style="text;strokeColor=none;fillColor=none;align=left;verticalAlign=top;spacingLeft=4;spacingRight=4;overflow=hidden;rotatable=0;points=[[0,0.5],[1,0.5]];portConstraint=eastwest;" vertex="1" parent="FjzVUKd9onfO_mUSDXpC-9">
          <mxGeometry y="78" width="170" height="26" as="geometry" />
        </mxCell>
        <mxCell id="BDBQeY_DdKFdNmqo1651-54" value="+ Duty: string" style="text;strokeColor=none;fillColor=none;align=left;verticalAlign=top;spacingLeft=4;spacingRight=4;overflow=hidden;rotatable=0;points=[[0,0.5],[1,0.5]];portConstraint=eastwest;" vertex="1" parent="FjzVUKd9onfO_mUSDXpC-9">
          <mxGeometry y="104" width="170" height="26" as="geometry" />
        </mxCell>
        <mxCell id="BDBQeY_DdKFdNmqo1651-58" value="+ Department: Department" style="text;strokeColor=none;fillColor=none;align=left;verticalAlign=top;spacingLeft=4;spacingRight=4;overflow=hidden;rotatable=0;points=[[0,0.5],[1,0.5]];portConstraint=eastwest;" vertex="1" parent="FjzVUKd9onfO_mUSDXpC-9">
          <mxGeometry y="130" width="170" height="26" as="geometry" />
        </mxCell>
        <mxCell id="BDBQeY_DdKFdNmqo1651-57" value="+ Role: Role" style="text;strokeColor=none;fillColor=none;align=left;verticalAlign=top;spacingLeft=4;spacingRight=4;overflow=hidden;rotatable=0;points=[[0,0.5],[1,0.5]];portConstraint=eastwest;" vertex="1" parent="FjzVUKd9onfO_mUSDXpC-9">
          <mxGeometry y="156" width="170" height="26" as="geometry" />
        </mxCell>
        <mxCell id="FjzVUKd9onfO_mUSDXpC-11" value="" style="endArrow=block;dashed=1;endFill=0;endSize=12;html=1;rounded=0;" parent="1" source="BDBQeY_DdKFdNmqo1651-56" target="FjzVUKd9onfO_mUSDXpC-1" edge="1">
          <mxGeometry width="160" relative="1" as="geometry">
            <mxPoint x="244" y="92" as="sourcePoint" />
            <mxPoint x="370" y="130" as="targetPoint" />
            <Array as="points">
              <mxPoint x="260" y="86" />
              <mxPoint x="280" y="86" />
            </Array>
          </mxGeometry>
        </mxCell>
        <mxCell id="FjzVUKd9onfO_mUSDXpC-14" value="Role" style="swimlane;fontStyle=0;childLayout=stackLayout;horizontal=1;startSize=26;fillColor=none;horizontalStack=0;resizeParent=1;resizeParentMax=0;resizeLast=0;collapsible=1;marginBottom=0;" parent="1" vertex="1">
          <mxGeometry x="90" y="269" width="140" height="70" as="geometry" />
        </mxCell>
        <mxCell id="FjzVUKd9onfO_mUSDXpC-15" value="User&#xa;Administrator" style="text;strokeColor=none;fillColor=none;align=left;verticalAlign=top;spacingLeft=4;spacingRight=4;overflow=hidden;rotatable=0;points=[[0,0.5],[1,0.5]];portConstraint=eastwest;" parent="FjzVUKd9onfO_mUSDXpC-14" vertex="1">
          <mxGeometry y="26" width="140" height="44" as="geometry" />
        </mxCell>
        <mxCell id="FjzVUKd9onfO_mUSDXpC-18" value="" style="endArrow=open;endFill=1;endSize=12;html=1;rounded=0;entryX=0.5;entryY=0;entryDx=0;entryDy=0;" parent="1" source="BDBQeY_DdKFdNmqo1651-57" target="FjzVUKd9onfO_mUSDXpC-14" edge="1">
          <mxGeometry width="160" relative="1" as="geometry">
            <mxPoint x="199" y="306" as="sourcePoint" />
            <mxPoint x="430" y="130" as="targetPoint" />
          </mxGeometry>
        </mxCell>
        <mxCell id="FjzVUKd9onfO_mUSDXpC-19" value="Computer" style="swimlane;fontStyle=0;childLayout=stackLayout;horizontal=1;startSize=26;fillColor=none;horizontalStack=0;resizeParent=1;resizeParentMax=0;resizeLast=0;collapsible=1;marginBottom=0;" parent="1" vertex="1">
          <mxGeometry x="290" y="170" width="180" height="182" as="geometry" />
        </mxCell>
        <mxCell id="FjzVUKd9onfO_mUSDXpC-20" value="+ MacAddress: string" style="text;strokeColor=none;fillColor=none;align=left;verticalAlign=top;spacingLeft=4;spacingRight=4;overflow=hidden;rotatable=0;points=[[0,0.5],[1,0.5]];portConstraint=eastwest;" parent="FjzVUKd9onfO_mUSDXpC-19" vertex="1">
          <mxGeometry y="26" width="180" height="26" as="geometry" />
        </mxCell>
        <mxCell id="BDBQeY_DdKFdNmqo1651-67" value="+ IpAddress: string" style="text;strokeColor=none;fillColor=none;align=left;verticalAlign=top;spacingLeft=4;spacingRight=4;overflow=hidden;rotatable=0;points=[[0,0.5],[1,0.5]];portConstraint=eastwest;" vertex="1" parent="FjzVUKd9onfO_mUSDXpC-19">
          <mxGeometry y="52" width="180" height="26" as="geometry" />
        </mxCell>
        <mxCell id="BDBQeY_DdKFdNmqo1651-66" value="+ InvNumber: string" style="text;strokeColor=none;fillColor=none;align=left;verticalAlign=top;spacingLeft=4;spacingRight=4;overflow=hidden;rotatable=0;points=[[0,0.5],[1,0.5]];portConstraint=eastwest;" vertex="1" parent="FjzVUKd9onfO_mUSDXpC-19">
          <mxGeometry y="78" width="180" height="26" as="geometry" />
        </mxCell>
        <mxCell id="BDBQeY_DdKFdNmqo1651-65" value="+ Person: Person" style="text;strokeColor=none;fillColor=none;align=left;verticalAlign=top;spacingLeft=4;spacingRight=4;overflow=hidden;rotatable=0;points=[[0,0.5],[1,0.5]];portConstraint=eastwest;" vertex="1" parent="FjzVUKd9onfO_mUSDXpC-19">
          <mxGeometry y="104" width="180" height="26" as="geometry" />
        </mxCell>
        <mxCell id="BDBQeY_DdKFdNmqo1651-64" value="+ Location: String" style="text;strokeColor=none;fillColor=none;align=left;verticalAlign=top;spacingLeft=4;spacingRight=4;overflow=hidden;rotatable=0;points=[[0,0.5],[1,0.5]];portConstraint=eastwest;" vertex="1" parent="FjzVUKd9onfO_mUSDXpC-19">
          <mxGeometry y="130" width="180" height="26" as="geometry" />
        </mxCell>
        <mxCell id="BDBQeY_DdKFdNmqo1651-63" value="+ LastAutorization: DateType" style="text;strokeColor=none;fillColor=none;align=left;verticalAlign=top;spacingLeft=4;spacingRight=4;overflow=hidden;rotatable=0;points=[[0,0.5],[1,0.5]];portConstraint=eastwest;" vertex="1" parent="FjzVUKd9onfO_mUSDXpC-19">
          <mxGeometry y="156" width="180" height="26" as="geometry" />
        </mxCell>
        <mxCell id="FjzVUKd9onfO_mUSDXpC-21" value="Department" style="swimlane;fontStyle=0;childLayout=stackLayout;horizontal=1;startSize=26;fillColor=none;horizontalStack=0;resizeParent=1;resizeParentMax=0;resizeLast=0;collapsible=1;marginBottom=0;" parent="1" vertex="1">
          <mxGeometry x="60" y="-180" width="200" height="104" as="geometry" />
        </mxCell>
        <mxCell id="FjzVUKd9onfO_mUSDXpC-22" value="+ Name: string" style="text;strokeColor=none;fillColor=none;align=left;verticalAlign=top;spacingLeft=4;spacingRight=4;overflow=hidden;rotatable=0;points=[[0,0.5],[1,0.5]];portConstraint=eastwest;" parent="FjzVUKd9onfO_mUSDXpC-21" vertex="1">
          <mxGeometry y="26" width="200" height="26" as="geometry" />
        </mxCell>
        <mxCell id="BDBQeY_DdKFdNmqo1651-53" value="+ ParentDepartment: Department?" style="text;strokeColor=none;fillColor=none;align=left;verticalAlign=top;spacingLeft=4;spacingRight=4;overflow=hidden;rotatable=0;points=[[0,0.5],[1,0.5]];portConstraint=eastwest;" vertex="1" parent="FjzVUKd9onfO_mUSDXpC-21">
          <mxGeometry y="52" width="200" height="26" as="geometry" />
        </mxCell>
        <mxCell id="BDBQeY_DdKFdNmqo1651-52" value="+ PersonList: List&lt;Person&gt;" style="text;strokeColor=none;fillColor=none;align=left;verticalAlign=top;spacingLeft=4;spacingRight=4;overflow=hidden;rotatable=0;points=[[0,0.5],[1,0.5]];portConstraint=eastwest;" vertex="1" parent="FjzVUKd9onfO_mUSDXpC-21">
          <mxGeometry y="78" width="200" height="26" as="geometry" />
        </mxCell>
        <mxCell id="FjzVUKd9onfO_mUSDXpC-23" value="" style="endArrow=block;dashed=1;endFill=0;endSize=12;html=1;rounded=0;entryX=0.25;entryY=0;entryDx=0;entryDy=0;" parent="1" source="FjzVUKd9onfO_mUSDXpC-21" target="FjzVUKd9onfO_mUSDXpC-1" edge="1">
          <mxGeometry width="160" relative="1" as="geometry">
            <mxPoint x="251.36000000000013" y="108.96800000000007" as="sourcePoint" />
            <mxPoint x="320" y="109" as="targetPoint" />
            <Array as="points">
              <mxPoint x="345" y="-128" />
              <mxPoint x="345" y="-57" />
            </Array>
          </mxGeometry>
        </mxCell>
        <mxCell id="BDBQeY_DdKFdNmqo1651-5" value="" style="group" vertex="1" connectable="0" parent="1">
          <mxGeometry x="240" y="112" width="48.56857142857143" height="121.00180180180178" as="geometry" />
        </mxCell>
        <mxCell id="BDBQeY_DdKFdNmqo1651-2" value="" style="endArrow=open;endFill=1;endSize=12;html=1;rounded=0;" edge="1" parent="BDBQeY_DdKFdNmqo1651-5" target="FjzVUKd9onfO_mUSDXpC-9">
          <mxGeometry width="160" relative="1" as="geometry">
            <mxPoint x="50" y="91" as="sourcePoint" />
            <mxPoint x="28.57142857142857" y="37.30630630630631" as="targetPoint" />
            <Array as="points">
              <mxPoint x="23" y="91" />
              <mxPoint x="23" y="2" />
            </Array>
          </mxGeometry>
        </mxCell>
        <mxCell id="BDBQeY_DdKFdNmqo1651-3" value="1&lt;br&gt;" style="text;html=1;align=center;verticalAlign=middle;resizable=0;points=[];autosize=1;strokeColor=none;fillColor=none;" vertex="1" parent="BDBQeY_DdKFdNmqo1651-5">
          <mxGeometry x="5" y="34.99972972972974" width="20" height="20" as="geometry" />
        </mxCell>
        <mxCell id="BDBQeY_DdKFdNmqo1651-12" value="1" style="text;html=1;align=center;verticalAlign=middle;resizable=0;points=[];autosize=1;strokeColor=none;fillColor=none;" vertex="1" parent="BDBQeY_DdKFdNmqo1651-5">
          <mxGeometry x="28.56857142857143" y="101.00180180180178" width="20" height="20" as="geometry" />
        </mxCell>
        <mxCell id="BDBQeY_DdKFdNmqo1651-6" value="" style="endArrow=block;dashed=1;endFill=0;endSize=12;html=1;rounded=0;exitX=0.5;exitY=0;exitDx=0;exitDy=0;entryX=0.502;entryY=1.006;entryDx=0;entryDy=0;entryPerimeter=0;" edge="1" parent="1" source="FjzVUKd9onfO_mUSDXpC-19" target="FjzVUKd9onfO_mUSDXpC-2">
          <mxGeometry width="160" relative="1" as="geometry">
            <mxPoint x="250" y="-47" as="sourcePoint" />
            <mxPoint x="310" y="130" as="targetPoint" />
            <Array as="points">
              <mxPoint x="380" y="150" />
            </Array>
          </mxGeometry>
        </mxCell>
        <mxCell id="BDBQeY_DdKFdNmqo1651-15" value="" style="group" vertex="1" connectable="0" parent="1">
          <mxGeometry x="158" y="-65" width="25" height="88" as="geometry" />
        </mxCell>
        <mxCell id="BDBQeY_DdKFdNmqo1651-13" value="*" style="text;html=1;align=center;verticalAlign=middle;resizable=0;points=[];autosize=1;strokeColor=none;fillColor=none;" vertex="1" parent="BDBQeY_DdKFdNmqo1651-15">
          <mxGeometry x="5" y="61.33333333333333" width="20" height="20" as="geometry" />
        </mxCell>
        <mxCell id="BDBQeY_DdKFdNmqo1651-14" value="1" style="text;html=1;align=center;verticalAlign=middle;resizable=0;points=[];autosize=1;strokeColor=none;fillColor=none;" vertex="1" parent="BDBQeY_DdKFdNmqo1651-15">
          <mxGeometry x="5" width="20" height="20" as="geometry" />
        </mxCell>
        <mxCell id="BDBQeY_DdKFdNmqo1651-26" value="" style="group" vertex="1" connectable="0" parent="1">
          <mxGeometry x="160" y="-230" width="70" height="50" as="geometry" />
        </mxCell>
        <mxCell id="BDBQeY_DdKFdNmqo1651-22" value="" style="endArrow=open;endFill=1;endSize=12;html=1;rounded=0;exitX=0.75;exitY=0;exitDx=0;exitDy=0;entryX=0.5;entryY=0;entryDx=0;entryDy=0;" edge="1" parent="BDBQeY_DdKFdNmqo1651-26" source="FjzVUKd9onfO_mUSDXpC-21" target="FjzVUKd9onfO_mUSDXpC-21">
          <mxGeometry width="160" relative="1" as="geometry">
            <mxPoint x="465" y="180" as="sourcePoint" />
            <mxPoint x="280" y="-60" as="targetPoint" />
            <Array as="points">
              <mxPoint x="50" />
              <mxPoint />
            </Array>
          </mxGeometry>
        </mxCell>
        <mxCell id="BDBQeY_DdKFdNmqo1651-23" value="1&lt;br&gt;" style="text;html=1;align=center;verticalAlign=middle;resizable=0;points=[];autosize=1;strokeColor=none;fillColor=none;" vertex="1" parent="BDBQeY_DdKFdNmqo1651-26">
          <mxGeometry x="50" y="30" width="20" height="20" as="geometry" />
        </mxCell>
        <mxCell id="BDBQeY_DdKFdNmqo1651-24" value="1" style="text;html=1;align=center;verticalAlign=middle;resizable=0;points=[];autosize=1;strokeColor=none;fillColor=none;" vertex="1" parent="BDBQeY_DdKFdNmqo1651-26">
          <mxGeometry y="30" width="20" height="20" as="geometry" />
        </mxCell>
        <mxCell id="BDBQeY_DdKFdNmqo1651-32" value="Software" style="swimlane;fontStyle=0;childLayout=stackLayout;horizontal=1;startSize=26;fillColor=none;horizontalStack=0;resizeParent=1;resizeParentMax=0;resizeLast=0;collapsible=1;marginBottom=0;" vertex="1" parent="1">
          <mxGeometry x="490" y="60" width="178" height="182" as="geometry" />
        </mxCell>
        <mxCell id="BDBQeY_DdKFdNmqo1651-42" value="+ Name: string    " style="text;strokeColor=none;fillColor=none;align=left;verticalAlign=middle;spacingLeft=4;spacingRight=4;overflow=hidden;rotatable=0;points=[[0,0.5],[1,0.5]];portConstraint=eastwest;" vertex="1" parent="BDBQeY_DdKFdNmqo1651-32">
          <mxGeometry y="26" width="178" height="26" as="geometry" />
        </mxCell>
        <mxCell id="BDBQeY_DdKFdNmqo1651-45" value="+ Version: string" style="text;strokeColor=none;fillColor=none;align=left;verticalAlign=middle;spacingLeft=4;spacingRight=4;overflow=hidden;rotatable=0;points=[[0,0.5],[1,0.5]];portConstraint=eastwest;" vertex="1" parent="BDBQeY_DdKFdNmqo1651-32">
          <mxGeometry y="52" width="178" height="26" as="geometry" />
        </mxCell>
        <mxCell id="BDBQeY_DdKFdNmqo1651-108" value="+ SoftwareType: SoftwareType" style="text;strokeColor=none;fillColor=none;align=left;verticalAlign=middle;spacingLeft=4;spacingRight=4;overflow=hidden;rotatable=0;points=[[0,0.5],[1,0.5]];portConstraint=eastwest;" vertex="1" parent="BDBQeY_DdKFdNmqo1651-32">
          <mxGeometry y="78" width="178" height="26" as="geometry" />
        </mxCell>
        <mxCell id="BDBQeY_DdKFdNmqo1651-102" value="+ LicenceList: List&lt;Licence&gt; " style="text;strokeColor=none;fillColor=none;align=left;verticalAlign=middle;spacingLeft=4;spacingRight=4;overflow=hidden;rotatable=0;points=[[0,0.5],[1,0.5]];portConstraint=eastwest;" vertex="1" parent="BDBQeY_DdKFdNmqo1651-32">
          <mxGeometry y="104" width="178" height="26" as="geometry" />
        </mxCell>
        <mxCell id="BDBQeY_DdKFdNmqo1651-101" value="+ Contract: Contract" style="text;strokeColor=none;fillColor=none;align=left;verticalAlign=middle;spacingLeft=4;spacingRight=4;overflow=hidden;rotatable=0;points=[[0,0.5],[1,0.5]];portConstraint=eastwest;" vertex="1" parent="BDBQeY_DdKFdNmqo1651-32">
          <mxGeometry y="130" width="178" height="26" as="geometry" />
        </mxCell>
        <mxCell id="BDBQeY_DdKFdNmqo1651-72" value="+ Distribution: Distribution?" style="text;strokeColor=none;fillColor=none;align=left;verticalAlign=middle;spacingLeft=4;spacingRight=4;overflow=hidden;rotatable=0;points=[[0,0.5],[1,0.5]];portConstraint=eastwest;" vertex="1" parent="BDBQeY_DdKFdNmqo1651-32">
          <mxGeometry y="156" width="178" height="26" as="geometry" />
        </mxCell>
        <mxCell id="BDBQeY_DdKFdNmqo1651-40" value="" style="endArrow=block;dashed=1;endFill=0;endSize=12;html=1;rounded=0;exitX=0;exitY=0.5;exitDx=0;exitDy=0;entryX=1;entryY=0.5;entryDx=0;entryDy=0;" edge="1" parent="1" source="BDBQeY_DdKFdNmqo1651-42" target="FjzVUKd9onfO_mUSDXpC-2">
          <mxGeometry width="160" relative="1" as="geometry">
            <mxPoint x="390" y="180" as="sourcePoint" />
            <mxPoint x="390.28" y="122.15599999999995" as="targetPoint" />
            <Array as="points">
              <mxPoint x="480" y="99" />
            </Array>
          </mxGeometry>
        </mxCell>
        <mxCell id="BDBQeY_DdKFdNmqo1651-46" value="Contract" style="swimlane;fontStyle=0;childLayout=stackLayout;horizontal=1;startSize=26;fillColor=none;horizontalStack=0;resizeParent=1;resizeParentMax=0;resizeLast=0;collapsible=1;marginBottom=0;" vertex="1" parent="1">
          <mxGeometry x="642" y="-65" width="155" height="78" as="geometry" />
        </mxCell>
        <mxCell id="BDBQeY_DdKFdNmqo1651-47" value="+ ContractNumber: string" style="text;strokeColor=none;fillColor=none;align=left;verticalAlign=top;spacingLeft=4;spacingRight=4;overflow=hidden;rotatable=0;points=[[0,0.5],[1,0.5]];portConstraint=eastwest;" vertex="1" parent="BDBQeY_DdKFdNmqo1651-46">
          <mxGeometry y="26" width="155" height="26" as="geometry" />
        </mxCell>
        <mxCell id="BDBQeY_DdKFdNmqo1651-48" value="+ Date: DateType" style="text;strokeColor=none;fillColor=none;align=left;verticalAlign=top;spacingLeft=4;spacingRight=4;overflow=hidden;rotatable=0;points=[[0,0.5],[1,0.5]];portConstraint=eastwest;" vertex="1" parent="BDBQeY_DdKFdNmqo1651-46">
          <mxGeometry y="52" width="155" height="26" as="geometry" />
        </mxCell>
        <mxCell id="BDBQeY_DdKFdNmqo1651-10" value="" style="endArrow=open;endFill=1;endSize=12;html=1;rounded=0;exitX=0.5;exitY=0;exitDx=0;exitDy=0;" edge="1" parent="1" source="FjzVUKd9onfO_mUSDXpC-9" target="FjzVUKd9onfO_mUSDXpC-21">
          <mxGeometry width="160" relative="1" as="geometry">
            <mxPoint x="340" y="200" as="sourcePoint" />
            <mxPoint x="155" y="-28" as="targetPoint" />
            <Array as="points" />
          </mxGeometry>
        </mxCell>
        <mxCell id="BDBQeY_DdKFdNmqo1651-68" value="Support" style="swimlane;fontStyle=0;childLayout=stackLayout;horizontal=1;startSize=26;fillColor=none;horizontalStack=0;resizeParent=1;resizeParentMax=0;resizeLast=0;collapsible=1;marginBottom=0;" vertex="1" parent="1">
          <mxGeometry x="825" y="-107" width="186" height="130" as="geometry" />
        </mxCell>
        <mxCell id="BDBQeY_DdKFdNmqo1651-69" value="+ ExpirationDate: DateTime" style="text;strokeColor=none;fillColor=none;align=left;verticalAlign=top;spacingLeft=4;spacingRight=4;overflow=hidden;rotatable=0;points=[[0,0.5],[1,0.5]];portConstraint=eastwest;" vertex="1" parent="BDBQeY_DdKFdNmqo1651-68">
          <mxGeometry y="26" width="186" height="26" as="geometry" />
        </mxCell>
        <mxCell id="BDBQeY_DdKFdNmqo1651-70" value="+ ActivationCode: string" style="text;strokeColor=none;fillColor=none;align=left;verticalAlign=top;spacingLeft=4;spacingRight=4;overflow=hidden;rotatable=0;points=[[0,0.5],[1,0.5]];portConstraint=eastwest;" vertex="1" parent="BDBQeY_DdKFdNmqo1651-68">
          <mxGeometry y="52" width="186" height="26" as="geometry" />
        </mxCell>
        <mxCell id="BDBQeY_DdKFdNmqo1651-71" value="+ PhoneNumber: string" style="text;strokeColor=none;fillColor=none;align=left;verticalAlign=top;spacingLeft=4;spacingRight=4;overflow=hidden;rotatable=0;points=[[0,0.5],[1,0.5]];portConstraint=eastwest;" vertex="1" parent="BDBQeY_DdKFdNmqo1651-68">
          <mxGeometry y="78" width="186" height="26" as="geometry" />
        </mxCell>
        <mxCell id="BDBQeY_DdKFdNmqo1651-109" value="+ Email: string" style="text;strokeColor=none;fillColor=none;align=left;verticalAlign=top;spacingLeft=4;spacingRight=4;overflow=hidden;rotatable=0;points=[[0,0.5],[1,0.5]];portConstraint=eastwest;" vertex="1" parent="BDBQeY_DdKFdNmqo1651-68">
          <mxGeometry y="104" width="186" height="26" as="geometry" />
        </mxCell>
        <mxCell id="BDBQeY_DdKFdNmqo1651-73" value="Distribution" style="swimlane;fontStyle=0;childLayout=stackLayout;horizontal=1;startSize=26;fillColor=none;horizontalStack=0;resizeParent=1;resizeParentMax=0;resizeLast=0;collapsible=1;marginBottom=0;" vertex="1" parent="1">
          <mxGeometry x="509" y="-188" width="152" height="104" as="geometry" />
        </mxCell>
        <mxCell id="BDBQeY_DdKFdNmqo1651-74" value="+ Number: string" style="text;strokeColor=none;fillColor=none;align=left;verticalAlign=top;spacingLeft=4;spacingRight=4;overflow=hidden;rotatable=0;points=[[0,0.5],[1,0.5]];portConstraint=eastwest;" vertex="1" parent="BDBQeY_DdKFdNmqo1651-73">
          <mxGeometry y="26" width="152" height="26" as="geometry" />
        </mxCell>
        <mxCell id="BDBQeY_DdKFdNmqo1651-75" value="+ OrgRegNumber: string" style="text;strokeColor=none;fillColor=none;align=left;verticalAlign=top;spacingLeft=4;spacingRight=4;overflow=hidden;rotatable=0;points=[[0,0.5],[1,0.5]];portConstraint=eastwest;" vertex="1" parent="BDBQeY_DdKFdNmqo1651-73">
          <mxGeometry y="52" width="152" height="26" as="geometry" />
        </mxCell>
        <mxCell id="BDBQeY_DdKFdNmqo1651-76" value="+ Formular: Formular?" style="text;strokeColor=none;fillColor=none;align=left;verticalAlign=top;spacingLeft=4;spacingRight=4;overflow=hidden;rotatable=0;points=[[0,0.5],[1,0.5]];portConstraint=eastwest;" vertex="1" parent="BDBQeY_DdKFdNmqo1651-73">
          <mxGeometry y="78" width="152" height="26" as="geometry" />
        </mxCell>
        <mxCell id="BDBQeY_DdKFdNmqo1651-78" value="Formular" style="swimlane;fontStyle=0;childLayout=stackLayout;horizontal=1;startSize=26;fillColor=none;horizontalStack=0;resizeParent=1;resizeParentMax=0;resizeLast=0;collapsible=1;marginBottom=0;" vertex="1" parent="1">
          <mxGeometry x="719" y="-305" width="273" height="156" as="geometry" />
        </mxCell>
        <mxCell id="BDBQeY_DdKFdNmqo1651-79" value="+ Name: string" style="text;strokeColor=none;fillColor=none;align=left;verticalAlign=top;spacingLeft=4;spacingRight=4;overflow=hidden;rotatable=0;points=[[0,0.5],[1,0.5]];portConstraint=eastwest;" vertex="1" parent="BDBQeY_DdKFdNmqo1651-78">
          <mxGeometry y="26" width="273" height="26" as="geometry" />
        </mxCell>
        <mxCell id="BDBQeY_DdKFdNmqo1651-80" value="+ SerialKey: string " style="text;strokeColor=none;fillColor=none;align=left;verticalAlign=top;spacingLeft=4;spacingRight=4;overflow=hidden;rotatable=0;points=[[0,0.5],[1,0.5]];portConstraint=eastwest;" vertex="1" parent="BDBQeY_DdKFdNmqo1651-78">
          <mxGeometry y="52" width="273" height="26" as="geometry" />
        </mxCell>
        <mxCell id="BDBQeY_DdKFdNmqo1651-83" value="+ OrgRegNumber: String" style="text;strokeColor=none;fillColor=none;align=left;verticalAlign=top;spacingLeft=4;spacingRight=4;overflow=hidden;rotatable=0;points=[[0,0.5],[1,0.5]];portConstraint=eastwest;" vertex="1" parent="BDBQeY_DdKFdNmqo1651-78">
          <mxGeometry y="78" width="273" height="26" as="geometry" />
        </mxCell>
        <mxCell id="BDBQeY_DdKFdNmqo1651-82" value="+ ProtectionKey: string" style="text;strokeColor=none;fillColor=none;align=left;verticalAlign=top;spacingLeft=4;spacingRight=4;overflow=hidden;rotatable=0;points=[[0,0.5],[1,0.5]];portConstraint=eastwest;" vertex="1" parent="BDBQeY_DdKFdNmqo1651-78">
          <mxGeometry y="104" width="273" height="26" as="geometry" />
        </mxCell>
        <mxCell id="BDBQeY_DdKFdNmqo1651-81" value="+ AccordanceSertificate: AccordanceSertificate" style="text;strokeColor=none;fillColor=none;align=left;verticalAlign=top;spacingLeft=4;spacingRight=4;overflow=hidden;rotatable=0;points=[[0,0.5],[1,0.5]];portConstraint=eastwest;" vertex="1" parent="BDBQeY_DdKFdNmqo1651-78">
          <mxGeometry y="130" width="273" height="26" as="geometry" />
        </mxCell>
        <mxCell id="BDBQeY_DdKFdNmqo1651-123" style="edgeStyle=orthogonalEdgeStyle;rounded=0;orthogonalLoop=1;jettySize=auto;html=1;exitX=0.25;exitY=0;exitDx=0;exitDy=0;endArrow=open;endFill=0;" edge="1" parent="1" source="BDBQeY_DdKFdNmqo1651-84" target="BDBQeY_DdKFdNmqo1651-46">
          <mxGeometry relative="1" as="geometry">
            <Array as="points">
              <mxPoint x="793" y="41" />
              <mxPoint x="709" y="41" />
            </Array>
          </mxGeometry>
        </mxCell>
        <mxCell id="BDBQeY_DdKFdNmqo1651-84" value="Licence" style="swimlane;fontStyle=0;childLayout=stackLayout;horizontal=1;startSize=26;fillColor=none;horizontalStack=0;resizeParent=1;resizeParentMax=0;resizeLast=0;collapsible=1;marginBottom=0;" vertex="1" parent="1">
          <mxGeometry x="752" y="60" width="165" height="182" as="geometry" />
        </mxCell>
        <mxCell id="BDBQeY_DdKFdNmqo1651-103" value="+ SoftwareId: int" style="text;strokeColor=none;fillColor=none;align=left;verticalAlign=middle;spacingLeft=4;spacingRight=4;overflow=hidden;rotatable=0;points=[[0,0.5],[1,0.5]];portConstraint=eastwest;" vertex="1" parent="BDBQeY_DdKFdNmqo1651-84">
          <mxGeometry y="26" width="165" height="26" as="geometry" />
        </mxCell>
        <mxCell id="BDBQeY_DdKFdNmqo1651-88" value="+ LicenceNumber: String" style="text;strokeColor=none;fillColor=none;align=left;verticalAlign=middle;spacingLeft=4;spacingRight=4;overflow=hidden;rotatable=0;points=[[0,0.5],[1,0.5]];portConstraint=eastwest;" vertex="1" parent="BDBQeY_DdKFdNmqo1651-84">
          <mxGeometry y="52" width="165" height="26" as="geometry" />
        </mxCell>
        <mxCell id="BDBQeY_DdKFdNmqo1651-89" value="+ AcquisitionDate: DateTime" style="text;strokeColor=none;fillColor=none;align=left;verticalAlign=middle;spacingLeft=4;spacingRight=4;overflow=hidden;rotatable=0;points=[[0,0.5],[1,0.5]];portConstraint=eastwest;" vertex="1" parent="BDBQeY_DdKFdNmqo1651-84">
          <mxGeometry y="78" width="165" height="26" as="geometry" />
        </mxCell>
        <mxCell id="BDBQeY_DdKFdNmqo1651-90" value="+ ExpirationDate: DateTime" style="text;strokeColor=none;fillColor=none;align=left;verticalAlign=middle;spacingLeft=4;spacingRight=4;overflow=hidden;rotatable=0;points=[[0,0.5],[1,0.5]];portConstraint=eastwest;" vertex="1" parent="BDBQeY_DdKFdNmqo1651-84">
          <mxGeometry y="104" width="165" height="26" as="geometry" />
        </mxCell>
        <mxCell id="BDBQeY_DdKFdNmqo1651-91" value="+ Contract: Contract" style="text;strokeColor=none;fillColor=none;align=left;verticalAlign=middle;spacingLeft=4;spacingRight=4;overflow=hidden;rotatable=0;points=[[0,0.5],[1,0.5]];portConstraint=eastwest;" vertex="1" parent="BDBQeY_DdKFdNmqo1651-84">
          <mxGeometry y="130" width="165" height="26" as="geometry" />
        </mxCell>
        <mxCell id="BDBQeY_DdKFdNmqo1651-110" value="+ Support: Support" style="text;strokeColor=none;fillColor=none;align=left;verticalAlign=middle;spacingLeft=4;spacingRight=4;overflow=hidden;rotatable=0;points=[[0,0.5],[1,0.5]];portConstraint=eastwest;" vertex="1" parent="BDBQeY_DdKFdNmqo1651-84">
          <mxGeometry y="156" width="165" height="26" as="geometry" />
        </mxCell>
        <mxCell id="BDBQeY_DdKFdNmqo1651-105" value="SoftwareLocation" style="swimlane;fontStyle=0;childLayout=stackLayout;horizontal=1;startSize=26;fillColor=none;horizontalStack=0;resizeParent=1;resizeParentMax=0;resizeLast=0;collapsible=1;marginBottom=0;" vertex="1" parent="1">
          <mxGeometry x="432" y="-47" width="140" height="70" as="geometry" />
        </mxCell>
        <mxCell id="BDBQeY_DdKFdNmqo1651-106" value="Local&#xa;Server" style="text;strokeColor=none;fillColor=none;align=left;verticalAlign=top;spacingLeft=4;spacingRight=4;overflow=hidden;rotatable=0;points=[[0,0.5],[1,0.5]];portConstraint=eastwest;" vertex="1" parent="BDBQeY_DdKFdNmqo1651-105">
          <mxGeometry y="26" width="140" height="44" as="geometry" />
        </mxCell>
        <mxCell id="BDBQeY_DdKFdNmqo1651-107" value="" style="endArrow=open;endFill=1;endSize=12;html=1;rounded=0;exitX=0.25;exitY=0;exitDx=0;exitDy=0;" edge="1" parent="1" source="BDBQeY_DdKFdNmqo1651-32" target="BDBQeY_DdKFdNmqo1651-106">
          <mxGeometry width="160" relative="1" as="geometry">
            <mxPoint x="542" y="62" as="sourcePoint" />
            <mxPoint x="170" y="279" as="targetPoint" />
            <Array as="points">
              <mxPoint x="535" y="42" />
              <mxPoint x="502" y="42" />
            </Array>
          </mxGeometry>
        </mxCell>
        <mxCell id="BDBQeY_DdKFdNmqo1651-117" value="" style="group" vertex="1" connectable="0" parent="1">
          <mxGeometry x="836" y="21" width="18" height="39" as="geometry" />
        </mxCell>
        <mxCell id="BDBQeY_DdKFdNmqo1651-112" value="" style="endArrow=open;endFill=1;endSize=12;html=1;rounded=0;entryX=0.051;entryY=1;entryDx=0;entryDy=0;entryPerimeter=0;" edge="1" parent="BDBQeY_DdKFdNmqo1651-117" source="BDBQeY_DdKFdNmqo1651-84" target="BDBQeY_DdKFdNmqo1651-109">
          <mxGeometry width="160" relative="1" as="geometry">
            <mxPoint x="82" y="39" as="sourcePoint" />
            <mxPoint x="194.57142857142856" y="60.30630630630631" as="targetPoint" />
            <Array as="points" />
          </mxGeometry>
        </mxCell>
        <mxCell id="BDBQeY_DdKFdNmqo1651-115" value="1" style="text;html=1;align=center;verticalAlign=middle;resizable=0;points=[];autosize=1;strokeColor=none;fillColor=none;" vertex="1" parent="BDBQeY_DdKFdNmqo1651-117">
          <mxGeometry width="17" height="18" as="geometry" />
        </mxCell>
        <mxCell id="BDBQeY_DdKFdNmqo1651-116" value="*" style="text;html=1;align=center;verticalAlign=middle;resizable=0;points=[];autosize=1;strokeColor=none;fillColor=none;" vertex="1" parent="BDBQeY_DdKFdNmqo1651-117">
          <mxGeometry x="2" y="21" width="15" height="18" as="geometry" />
        </mxCell>
        <mxCell id="BDBQeY_DdKFdNmqo1651-124" value="1" style="text;html=1;align=center;verticalAlign=middle;resizable=0;points=[];autosize=1;strokeColor=none;fillColor=none;" vertex="1" parent="1">
          <mxGeometry x="711" y="20" width="17" height="18" as="geometry" />
        </mxCell>
        <mxCell id="BDBQeY_DdKFdNmqo1651-125" value="*" style="text;html=1;align=center;verticalAlign=middle;resizable=0;points=[];autosize=1;strokeColor=none;fillColor=none;" vertex="1" parent="1">
          <mxGeometry x="793" y="43" width="15" height="18" as="geometry" />
        </mxCell>
        <mxCell id="BDBQeY_DdKFdNmqo1651-127" value="" style="endArrow=open;endFill=1;endSize=12;html=1;rounded=0;" edge="1" parent="1" source="BDBQeY_DdKFdNmqo1651-32" target="BDBQeY_DdKFdNmqo1651-73">
          <mxGeometry width="160" relative="1" as="geometry">
            <mxPoint x="552.5000000000002" y="70" as="sourcePoint" />
            <mxPoint x="512" y="32.99999999999977" as="targetPoint" />
          </mxGeometry>
        </mxCell>
        <mxCell id="BDBQeY_DdKFdNmqo1651-129" style="edgeStyle=orthogonalEdgeStyle;rounded=0;orthogonalLoop=1;jettySize=auto;html=1;endArrow=open;endFill=0;" edge="1" parent="1" target="BDBQeY_DdKFdNmqo1651-84">
          <mxGeometry relative="1" as="geometry">
            <mxPoint x="668" y="151" as="sourcePoint" />
          </mxGeometry>
        </mxCell>
        <mxCell id="BDBQeY_DdKFdNmqo1651-130" value="*" style="text;html=1;align=center;verticalAlign=middle;resizable=0;points=[];autosize=1;strokeColor=none;fillColor=none;" vertex="1" parent="1">
          <mxGeometry x="734" y="134" width="15" height="18" as="geometry" />
        </mxCell>
        <mxCell id="BDBQeY_DdKFdNmqo1651-131" value="1" style="text;html=1;align=center;verticalAlign=middle;resizable=0;points=[];autosize=1;strokeColor=none;fillColor=none;" vertex="1" parent="1">
          <mxGeometry x="668" y="134" width="17" height="18" as="geometry" />
        </mxCell>
        <mxCell id="BDBQeY_DdKFdNmqo1651-136" style="edgeStyle=orthogonalEdgeStyle;rounded=0;orthogonalLoop=1;jettySize=auto;html=1;entryX=0;entryY=0.5;entryDx=0;entryDy=0;endArrow=open;endFill=0;" edge="1" parent="1" source="BDBQeY_DdKFdNmqo1651-80" target="BDBQeY_DdKFdNmqo1651-151">
          <mxGeometry relative="1" as="geometry">
            <mxPoint x="1039" y="345" as="targetPoint" />
          </mxGeometry>
        </mxCell>
        <mxCell id="BDBQeY_DdKFdNmqo1651-137" style="edgeStyle=orthogonalEdgeStyle;rounded=0;orthogonalLoop=1;jettySize=auto;html=1;endArrow=open;endFill=0;entryX=0;entryY=0.269;entryDx=0;entryDy=0;entryPerimeter=0;" edge="1" parent="1" source="BDBQeY_DdKFdNmqo1651-75" target="BDBQeY_DdKFdNmqo1651-83">
          <mxGeometry relative="1" as="geometry">
            <mxPoint x="707" y="365" as="targetPoint" />
          </mxGeometry>
        </mxCell>
        <mxCell id="BDBQeY_DdKFdNmqo1651-140" value="*" style="text;html=1;align=center;verticalAlign=middle;resizable=0;points=[];autosize=1;strokeColor=none;fillColor=none;" vertex="1" parent="1">
          <mxGeometry x="590" y="-76" width="15" height="18" as="geometry" />
        </mxCell>
        <mxCell id="BDBQeY_DdKFdNmqo1651-142" value="1" style="text;html=1;align=center;verticalAlign=middle;resizable=0;points=[];autosize=1;strokeColor=none;fillColor=none;" vertex="1" parent="1">
          <mxGeometry x="585" y="42" width="17" height="18" as="geometry" />
        </mxCell>
        <mxCell id="BDBQeY_DdKFdNmqo1651-143" value="1" style="text;html=1;align=center;verticalAlign=middle;resizable=0;points=[];autosize=1;strokeColor=none;fillColor=none;" vertex="1" parent="1">
          <mxGeometry x="992" y="-236" width="17" height="18" as="geometry" />
        </mxCell>
        <mxCell id="BDBQeY_DdKFdNmqo1651-144" value="*" style="text;html=1;align=center;verticalAlign=middle;resizable=0;points=[];autosize=1;strokeColor=none;fillColor=none;" vertex="1" parent="1">
          <mxGeometry x="1028" y="-236" width="15" height="18" as="geometry" />
        </mxCell>
        <mxCell id="BDBQeY_DdKFdNmqo1651-145" value="AccordanceSertificate" style="swimlane;fontStyle=0;childLayout=stackLayout;horizontal=1;startSize=26;fillColor=none;horizontalStack=0;resizeParent=1;resizeParentMax=0;resizeLast=0;collapsible=1;marginBottom=0;" vertex="1" parent="1">
          <mxGeometry x="1050.5" y="-305" width="273" height="156" as="geometry" />
        </mxCell>
        <mxCell id="BDBQeY_DdKFdNmqo1651-146" value="+ RegNum: string" style="text;strokeColor=none;fillColor=none;align=left;verticalAlign=top;spacingLeft=4;spacingRight=4;overflow=hidden;rotatable=0;points=[[0,0.5],[1,0.5]];portConstraint=eastwest;" vertex="1" parent="BDBQeY_DdKFdNmqo1651-145">
          <mxGeometry y="26" width="273" height="26" as="geometry" />
        </mxCell>
        <mxCell id="BDBQeY_DdKFdNmqo1651-151" value="+ AcquisitionDate: DateTime" style="text;strokeColor=none;fillColor=none;align=left;verticalAlign=top;spacingLeft=4;spacingRight=4;overflow=hidden;rotatable=0;points=[[0,0.5],[1,0.5]];portConstraint=eastwest;" vertex="1" parent="BDBQeY_DdKFdNmqo1651-145">
          <mxGeometry y="52" width="273" height="26" as="geometry" />
        </mxCell>
        <mxCell id="BDBQeY_DdKFdNmqo1651-152" value="+ ExpirationDate: DateTime" style="text;strokeColor=none;fillColor=none;align=left;verticalAlign=top;spacingLeft=4;spacingRight=4;overflow=hidden;rotatable=0;points=[[0,0.5],[1,0.5]];portConstraint=eastwest;" vertex="1" parent="BDBQeY_DdKFdNmqo1651-145">
          <mxGeometry y="78" width="273" height="26" as="geometry" />
        </mxCell>
        <mxCell id="BDBQeY_DdKFdNmqo1651-153" value="+ ProlongDate: DateTime" style="text;strokeColor=none;fillColor=none;align=left;verticalAlign=top;spacingLeft=4;spacingRight=4;overflow=hidden;rotatable=0;points=[[0,0.5],[1,0.5]];portConstraint=eastwest;" vertex="1" parent="BDBQeY_DdKFdNmqo1651-145">
          <mxGeometry y="104" width="273" height="26" as="geometry" />
        </mxCell>
        <mxCell id="BDBQeY_DdKFdNmqo1651-154" value="+ FormularId: int" style="text;strokeColor=none;fillColor=none;align=left;verticalAlign=top;spacingLeft=4;spacingRight=4;overflow=hidden;rotatable=0;points=[[0,0.5],[1,0.5]];portConstraint=eastwest;" vertex="1" parent="BDBQeY_DdKFdNmqo1651-145">
          <mxGeometry y="130" width="273" height="26" as="geometry" />
        </mxCell>
        <mxCell id="BDBQeY_DdKFdNmqo1651-155" value="ProtectionProperty" style="swimlane;fontStyle=0;childLayout=stackLayout;horizontal=1;startSize=26;fillColor=none;horizontalStack=0;resizeParent=1;resizeParentMax=0;resizeLast=0;collapsible=1;marginBottom=0;" vertex="1" parent="1">
          <mxGeometry x="971" y="160" width="273" height="52" as="geometry" />
        </mxCell>
        <mxCell id="BDBQeY_DdKFdNmqo1651-159" value="+ ProtectionProperty: Dictionary&lt;string, string&gt;" style="text;strokeColor=none;fillColor=none;align=left;verticalAlign=top;spacingLeft=4;spacingRight=4;overflow=hidden;rotatable=0;points=[[0,0.5],[1,0.5]];portConstraint=eastwest;" vertex="1" parent="BDBQeY_DdKFdNmqo1651-155">
          <mxGeometry y="26" width="273" height="26" as="geometry" />
        </mxCell>
        <mxCell id="BDBQeY_DdKFdNmqo1651-162" style="edgeStyle=orthogonalEdgeStyle;rounded=0;orthogonalLoop=1;jettySize=auto;html=1;entryX=0.499;entryY=1.038;entryDx=0;entryDy=0;entryPerimeter=0;endArrow=open;endFill=0;startArrow=diamondThin;startFill=0;" edge="1" parent="1" source="BDBQeY_DdKFdNmqo1651-72" target="BDBQeY_DdKFdNmqo1651-159">
          <mxGeometry relative="1" as="geometry">
            <Array as="points">
              <mxPoint x="579" y="256" />
              <mxPoint x="1107" y="256" />
            </Array>
          </mxGeometry>
        </mxCell>
        <mxCell id="BDBQeY_DdKFdNmqo1651-164" value="ProtectionProperty" style="swimlane;fontStyle=0;childLayout=stackLayout;horizontal=1;startSize=26;fillColor=none;horizontalStack=0;resizeParent=1;resizeParentMax=0;resizeLast=0;collapsible=1;marginBottom=0;" vertex="1" parent="1">
          <mxGeometry x="490" y="308" width="273" height="52" as="geometry" />
        </mxCell>
        <mxCell id="BDBQeY_DdKFdNmqo1651-165" value="+ ProtectionProperty: Dictionary&lt;string, string&gt;" style="text;strokeColor=none;fillColor=none;align=left;verticalAlign=top;spacingLeft=4;spacingRight=4;overflow=hidden;rotatable=0;points=[[0,0.5],[1,0.5]];portConstraint=eastwest;" vertex="1" parent="BDBQeY_DdKFdNmqo1651-164">
          <mxGeometry y="26" width="273" height="26" as="geometry" />
        </mxCell>
      </root>
    </mxGraphModel>
  </diagram>
</mxfile>
